<svg width="174" height="39" viewBox="0 0 174 39" fill="none" xmlns="http://www.w3.org/2000/svg">
<path d="M26.3466 38.1697L8.78656 13.98V38.1697H0.946777V1.07581H9.00892L26.0735 24.3762V1.07581H33.9132V38.1633H26.3466V38.1697Z" fill="#1F3669"/>
<path d="M40.3172 4.1915C40.3172 1.85634 42.2485 0.0202026 44.5166 0.0202026C46.7847 0.0202026 48.716 1.85634 48.716 4.1915C48.716 6.52667 46.8355 8.42039 44.5166 8.42039C42.1977 8.42039 40.3172 6.52667 40.3172 4.1915ZM41.0351 38.1697V11.3121H48.049V38.1697H41.0351Z" fill="#1F3669"/>
<path d="M72.2862 38.1697L65.2215 27.8246L62.0195 31.273V38.1697H55.0057V1.07581H62.0195V23.263L72.1274 11.3057H80.7422L70.196 23.4806L81.0726 38.1633H72.2926L72.2862 38.1697Z" fill="#1F3669"/>
<path d="M84.5478 38.1697V1.07581H91.5616V38.1633H84.5478V38.1697Z" fill="#1F3669"/>
<path d="M114.528 38.1697V35.3867C112.705 37.5555 109.56 38.835 106.079 38.835C101.828 38.835 96.803 35.9433 96.803 29.9358C96.803 23.9284 101.828 21.2606 106.079 21.2606C109.611 21.2606 112.762 22.4313 114.528 24.5426V20.9279C114.528 18.2025 112.209 16.4239 108.677 16.4239C105.805 16.4239 103.156 17.4795 100.894 19.5908L98.2451 14.8629C101.504 11.9711 105.697 10.634 109.897 10.634C115.97 10.634 121.548 13.0779 121.548 20.8127V38.1633H114.535L114.528 38.1697ZM114.528 31.7144V28.3812C113.366 26.8266 111.161 26.046 108.893 26.046C106.129 26.046 103.868 27.4919 103.868 30.1022C103.868 32.7124 106.129 34.0496 108.893 34.0496C111.155 34.0496 113.366 33.269 114.528 31.7144Z" fill="#1F3669"/>
<path d="M144.515 38.1697V35.3867C142.692 37.5555 139.547 38.835 136.065 38.835C131.815 38.835 126.79 35.9433 126.79 29.9358C126.79 23.9284 131.815 21.2606 136.065 21.2606C139.598 21.2606 142.749 22.4313 144.515 24.5426V20.9279C144.515 18.2025 142.196 16.4239 138.664 16.4239C135.792 16.4239 133.143 17.4795 130.881 19.5908L128.232 14.8629C131.491 11.9711 135.684 10.634 139.884 10.634C145.957 10.634 151.535 13.0779 151.535 20.8127V38.1633H144.521L144.515 38.1697ZM144.515 31.7144V28.3812C143.352 26.8266 141.148 26.046 138.88 26.046C136.116 26.046 133.854 27.4919 133.854 30.1022C133.854 32.7124 136.116 34.0496 138.88 34.0496C141.142 34.0496 143.352 33.269 144.515 31.7144Z" fill="#1F3669"/>
<path d="M158.486 38.1697V11.3121H165.499V14.9844C167.38 12.5917 170.69 10.6468 174 10.6468V17.5435C173.504 17.4348 172.837 17.3772 172.069 17.3772C169.75 17.3772 166.656 18.7143 165.499 20.4353V38.1761H158.486V38.1697Z" fill="#1F3669"/>
</svg>
